<svg width="889" height="112" viewBox="0 0 889 112" fill="none" xmlns="http://www.w3.org/2000/svg">
<path d="M888.363 135.463C887.984 134.038 887.022 132.683 886.2 131.478C884.491 128.969 882.407 126.742 880.116 124.752C875.433 120.683 869.916 117.703 864.343 115.042C861.144 113.514 857.891 112.109 854.659 110.652C854.149 110.421 853.641 110.185 853.139 109.934C853.361 109.878 853.536 109.786 853.611 109.652C860.917 96.5516 868.326 83.5102 875.836 70.5246C876.181 69.9276 874.529 69.915 874.294 69.9367C859.435 71.2263 844.578 73.9735 830.36 78.5191C828.961 78.9663 827.569 79.4299 826.19 79.9314C826.2 79.6463 826.209 79.3613 826.217 79.0745C826.224 78.8166 825.46 78.887 825.354 79.0313C825.3 79.1016 825.246 79.1737 825.191 79.246C820.862 64.8553 816.499 50.4737 812.115 36.0992C810.787 31.7395 809.422 27.3905 808.104 23.0271C807.931 22.45 806.25 22.4355 805.959 22.9172C800.637 31.6945 795.84 40.7856 791.622 50.1418C789.513 54.819 787.542 59.5576 785.74 64.3594C783.99 69.0203 782.487 73.7625 780.797 78.4433C780.45 79.3993 780.089 80.3446 779.721 81.2843C778.058 80.0992 776.397 78.914 774.735 77.7289C771.014 75.0738 767.291 72.4203 763.569 69.7652C756.014 64.3773 748.433 59.029 740.876 53.6428C736.565 50.5691 732.256 47.4954 727.945 44.4219C727.645 44.2072 725.713 43.9837 725.775 44.6474C726.533 52.8384 728.797 60.766 731.16 68.6162C733.566 76.6161 735.834 84.6015 737.459 92.8033C737.908 95.0742 738.314 97.3543 738.675 99.6415C738.789 100.361 738.897 101.079 739.02 101.795C737.648 101.846 736.278 101.902 734.911 102.037C728.492 102.665 722.637 105.76 716.824 108.337C716.077 108.668 715.329 109.001 714.58 109.328C714.029 109.568 713.417 109.804 712.995 110.251C711.957 111.35 712.89 112.771 713.517 113.812C715.089 116.415 716.753 118.964 718.505 121.449C722.072 126.516 726.022 131.312 730.288 135.809C732.591 138.239 734.978 140.613 737.486 142.835C738.591 143.813 739.845 144.731 740.988 145.741C739.721 147.094 738.515 148.506 737.348 149.906C734.776 152.994 732.396 156.26 730.162 159.598C725.719 166.234 721.908 173.292 718.826 180.659C718.08 182.439 717.376 184.236 716.721 186.052C716.116 187.726 715.298 189.505 715.087 191.283C714.914 192.744 715.425 194.018 716.95 194.391C719.068 194.909 720.868 193.68 722.604 192.67C730.425 188.117 738.166 183.438 745.819 178.608C752.473 174.407 759.063 170.099 765.584 165.694C767.672 169.273 769.951 172.751 772.278 176.169C775.791 181.33 779.53 186.343 783.431 191.216C785.678 194.025 787.984 196.787 790.34 199.505C790.705 199.925 792.414 200.104 792.705 199.505C798.386 187.802 802.952 175.565 806.357 163.012C817.921 171.779 829.903 179.995 842.259 187.614C845.926 189.876 849.626 192.082 853.356 194.24C853.871 194.537 855.237 194.701 855.651 194.126C857.228 191.929 856.938 189.191 856.216 186.729C855.311 183.643 853.979 180.655 852.825 177.656C850.303 171.099 847.783 164.544 845.261 157.989C843.903 154.461 842.547 150.932 841.19 147.406C848.844 146.823 856.463 145.824 864.009 144.415C867.938 143.681 871.842 142.834 875.72 141.876C877.632 141.403 879.537 140.903 881.432 140.377C883.115 139.909 884.935 139.549 886.512 138.786C887.85 138.136 888.776 137.018 888.363 135.463ZM768.107 164.057C767.884 164.385 767.591 164.643 767.349 164.95C767.253 165.07 767.176 165.206 767.1 165.343C766.995 165.188 766.891 165.033 766.788 164.877C767.255 164.56 767.725 164.242 768.192 163.923C768.165 163.968 768.138 164.013 768.107 164.057Z" fill="#E9642F"/>
<path d="M791.539 123.239C791.539 134.783 786.988 144.589 780.66 148.128C779.025 149.044 777.271 149.54 775.446 149.54C766.558 149.54 759.352 137.765 759.352 123.239C759.352 108.714 766.558 96.9385 775.446 96.9385C777.271 96.9385 779.025 97.4344 780.66 98.3501C786.988 101.89 791.539 111.695 791.539 123.239Z" fill="#F2F2F2"/>
<path d="M791.539 123.239C791.539 134.783 786.988 144.588 780.66 148.128C774.33 144.59 769.779 134.783 769.779 123.239C769.779 111.695 774.33 101.888 780.66 98.3501C786.988 101.89 791.539 111.695 791.539 123.239Z" fill="#1A1A1A"/>
<path d="M832.683 122.615C832.683 134.158 828.132 143.964 821.803 147.503C820.168 148.419 818.414 148.915 816.589 148.915C807.701 148.915 800.496 137.14 800.496 122.615C800.496 108.089 807.701 96.314 816.589 96.314C818.414 96.314 820.168 96.8099 821.803 97.7256C828.131 101.265 832.683 111.071 832.683 122.615Z" fill="#F2F2F2"/>
<path d="M832.683 122.615C832.683 134.158 828.132 143.964 821.803 147.503C815.473 143.966 810.922 134.158 810.922 122.615C810.922 111.071 815.473 101.263 821.803 97.7256C828.131 101.265 832.683 111.071 832.683 122.615Z" fill="#1A1A1A"/>
<path d="M401.139 86.5945C400.657 86.0545 400.185 85.5052 399.692 84.9761C395.857 80.8647 393.512 75.9164 391.753 70.6645C391.39 69.5812 391.268 68.3687 391.281 67.2184C391.305 65.0124 392.886 63.955 394.965 64.711C395.773 65.005 396.598 65.4328 397.226 66.0069C398.839 67.481 400.503 68.9455 401.856 70.645C403.731 72.9993 405.34 75.565 407.062 78.0403C407.3 78.3814 407.535 78.7237 408.008 78.998C407.955 77.8601 407.859 76.7221 407.856 75.584C407.851 73.4947 407.818 71.3993 407.964 69.3182C408.037 68.2736 408.363 67.2059 408.776 66.234C409.87 63.6596 412.119 63.3465 413.916 65.4588C415.011 66.7469 415.658 68.276 416.096 69.8789C417.304 74.295 418.225 78.7722 418.799 83.3174C418.853 83.7415 418.929 84.1627 419.216 84.66C419.382 84.3119 419.569 83.9721 419.711 83.6145C422.272 77.1694 425.916 71.3848 430.494 66.1984C431.546 65.0063 432.824 63.988 434.102 63.0298C434.864 62.4595 435.793 62.0402 436.711 61.7666C438.966 61.094 440.645 62.0737 440.987 64.4011C441.238 66.1146 441.33 67.9076 441.116 69.618C440.883 71.4817 440.313 73.3232 439.717 75.1175C438.319 79.3329 436.478 83.3555 434.138 87.1412C433.791 87.7037 433.473 88.2848 433.321 89.0127C433.703 88.7567 434.09 88.5077 434.466 88.2435C436.338 86.9285 438.202 85.6002 440.08 84.2937C444.086 81.5073 448.568 79.7686 453.216 78.4265C454.089 78.1744 455.043 78.0815 455.955 78.1066C457.466 78.1481 458.313 79.2278 457.909 80.6763C457.654 81.5886 457.152 82.4685 456.608 83.2568C454.594 86.1721 451.999 88.5421 449.2 90.6674C446.527 92.6973 443.747 94.5855 441.011 96.5327C440.584 96.8365 440.145 97.1225 439.443 97.5989C440.088 97.6366 440.441 97.6817 440.793 97.6739C447.347 97.5266 453.829 98.1006 460.194 99.7168C461.509 100.051 462.801 100.511 464.06 101.02C465.536 101.617 466.732 102.608 467.592 103.97C468.603 105.574 468.245 107.109 466.468 107.765C464.841 108.366 463.112 108.812 461.392 109.019C455.275 109.754 449.139 110.282 442.926 109.921C444.408 110.63 445.946 111.247 447.362 112.071C449.799 113.487 452.191 114.987 454.542 116.542C455.837 117.399 456.731 118.616 456.893 120.243C457.05 121.807 456.476 122.752 455.007 123.301C453.351 123.919 451.63 123.883 449.966 123.488C446.655 122.703 443.377 121.781 440.087 120.914C439.731 120.821 439.379 120.718 438.933 120.802C439.184 121.014 439.432 121.23 439.685 121.439C445.636 126.362 450.484 132.237 454.584 138.747C456.025 141.036 457.12 143.468 457.056 146.264C457.05 146.556 457.053 146.852 457.002 147.137C456.779 148.371 456.052 148.971 454.829 148.704C453.894 148.5 452.921 148.177 452.134 147.652C450.399 146.494 448.627 145.326 447.129 143.892C443.331 140.26 439.677 136.478 435.964 132.757C435.775 132.567 435.575 132.388 435.217 132.327C435.424 132.685 435.629 133.045 435.839 133.402C437.393 136.044 438.982 138.667 440.484 141.338C441.004 142.261 441.349 143.29 441.698 144.297C441.853 144.742 441.89 145.257 441.858 145.733C441.75 147.37 440.36 148.274 438.863 147.615C438.123 147.289 437.382 146.815 436.835 146.227C435.213 144.484 433.622 142.704 432.144 140.839C430.884 139.248 429.797 137.519 428.438 135.571C428.622 136.661 428.84 137.433 428.862 138.211C428.889 139.171 428.871 140.162 428.662 141.093C428.357 142.455 427.354 143.087 425.957 143.008C424.505 142.926 423.352 142.229 422.436 141.159C421.715 140.316 421.083 139.397 420.266 138.319C420.63 139.9 420.978 141.252 421.249 142.619C422.041 146.614 422.293 150.625 421.442 154.649C421.312 155.265 421.185 155.897 420.939 156.471C420.103 158.422 417.983 158.871 416.618 157.284C415.812 156.348 415.087 155.213 414.731 154.044C413.741 150.792 412.924 147.484 412.112 144.18C411.52 141.772 411.047 139.335 410.514 136.912C410.445 136.601 410.329 136.3 410.152 135.722C409.777 137.316 409.522 138.653 409.141 139.953C408.705 141.443 408.216 142.923 407.64 144.365C407.127 145.646 406.282 146.737 405.152 147.551C404.647 147.915 404.077 148.285 403.485 148.416C401.933 148.758 400.423 148.743 399.993 146.263C399.686 144.496 399.813 142.765 400.236 141.054C400.644 139.403 401.15 137.776 401.616 136.139C401.744 135.686 401.881 135.236 401.834 134.689C401.56 135.007 401.274 135.316 401.014 135.646C398.216 139.204 395.483 142.816 392.598 146.303C391.433 147.712 389.951 148.863 388.589 150.105C388.271 150.395 387.867 150.603 387.479 150.802C385.077 152.036 383.008 151.035 382.685 148.358C382.568 147.385 382.74 146.294 383.079 145.367C383.627 143.868 384.317 142.396 385.136 141.025C387.331 137.35 389.625 133.734 391.882 130.095C392.211 129.565 392.552 129.043 393.075 128.221C392.457 128.42 392.154 128.48 391.884 128.61C390.57 129.245 389.279 129.929 387.952 130.537C386.527 131.189 385.045 131.698 383.446 131.563C382.778 131.506 382.085 131.375 381.474 131.114C379.89 130.439 379.42 129.36 379.922 127.695C380.638 125.316 382.296 123.6 384.049 121.962C384.326 121.703 384.652 121.495 384.902 121.08C384.61 121.121 384.308 121.126 384.028 121.207C378.208 122.885 372.264 123.337 366.244 122.979C365.33 122.925 364.393 122.794 363.523 122.52C361.706 121.948 361.114 120.406 361.969 118.696C362.485 117.664 363.255 116.86 364.299 116.358C369.503 113.857 374.868 111.876 380.683 111.369C381.155 111.327 381.622 111.22 382.28 111.112C380.535 110.237 378.976 109.483 377.446 108.674C376.85 108.358 376.245 107.992 375.775 107.519C374.526 106.263 374.797 104.539 376.392 103.781C377.258 103.37 378.217 103.06 379.164 102.932C381.133 102.664 383.122 102.548 385.194 102.361C384.919 102.162 384.648 101.941 384.355 101.756C381.765 100.117 379.174 98.4806 376.578 96.8516C374.829 95.7541 373.347 94.3565 371.964 92.8383C370.788 91.5471 370.047 90.0282 369.601 88.3625C369.174 86.7702 369.83 85.515 371.416 85.0887C373.47 84.537 375.519 84.4707 377.57 85.297C381.176 86.7505 384.354 88.876 387.423 91.2208C388.926 92.3698 390.554 93.3572 392.134 94.4057C392.364 94.5584 392.638 94.6439 393.047 94.617C392.861 94.3931 392.693 94.1515 392.487 93.9482C391.1 92.5806 389.699 91.227 388.314 89.8575C386.692 88.2542 385.503 86.3743 384.837 84.1901C384.416 82.8079 384.135 81.3877 385.354 80.2348C386.655 79.0038 388.209 78.8372 389.838 79.4488C392.92 80.6066 395.724 82.2357 398.152 84.4851C399.035 85.3025 399.955 86.0786 400.858 86.8736C400.952 86.7804 401.046 86.6874 401.139 86.5945Z" fill="#DA4B77"/>
<path d="M413.849 107.078C413.849 109.198 412.979 111.116 411.575 112.494C410.204 113.839 408.325 114.669 406.251 114.669C402.054 114.669 398.653 111.27 398.653 107.078C398.653 103.182 401.59 99.9722 405.372 99.5371C405.661 99.5038 405.954 99.4868 406.251 99.4868C410.447 99.4868 413.849 102.885 413.849 107.078Z" fill="#F2F2F2"/>
<path d="M413.849 107.078C413.849 109.198 412.979 111.116 411.575 112.494C411.287 112.527 410.994 112.544 410.697 112.544C406.5 112.544 403.098 109.145 403.098 104.953C403.098 102.832 403.968 100.914 405.372 99.5371C405.661 99.5038 405.954 99.4868 406.251 99.4868C410.447 99.4868 413.849 102.885 413.849 107.078Z" fill="#1A1A1A"/>
<path d="M431.02 106.771C431.02 108.892 430.15 110.81 428.746 112.187C427.376 113.532 425.496 114.362 423.423 114.362C419.226 114.362 415.824 110.964 415.824 106.771C415.824 102.876 418.761 99.6655 422.543 99.2305C422.832 99.1971 423.125 99.1802 423.423 99.1802C427.619 99.1802 431.02 102.579 431.02 106.771Z" fill="#F2F2F2"/>
<path d="M431.02 106.771C431.02 108.892 430.15 110.81 428.746 112.187C428.458 112.22 428.165 112.237 427.868 112.237C423.671 112.237 420.269 108.839 420.269 104.646C420.269 102.526 421.14 100.608 422.543 99.2305C422.832 99.1971 423.125 99.1802 423.422 99.1802C427.619 99.1802 431.02 102.579 431.02 106.771Z" fill="#1A1A1A"/>
<path d="M298.228 140.377C300.197 141.569 302.289 142.451 304.566 142.889C306.93 143.345 309.356 143.441 311.759 143.489C316.732 143.587 321.725 143.472 326.695 143.332C331.605 143.193 336.519 142.927 341.395 142.319C346.072 141.735 350.816 140.909 355.285 139.406C359.038 138.143 362.769 135.969 364.133 132.106C364.741 130.386 364.805 128.479 364.03 126.798C363.229 125.057 361.66 123.799 360.01 122.859C359.762 122.718 359.51 122.581 359.258 122.448C356.681 120.45 353.731 118.918 350.59 117.966C349.499 117.636 348.389 117.36 347.264 117.169C346.791 117.088 346.317 117.021 345.839 116.97C349.232 116.264 352.562 115.156 355.725 113.821C357.609 113.026 359.543 112.172 361.099 110.835C362.432 109.687 363.358 108.211 363.831 106.535C364.777 103.187 363.877 99.4971 361.721 96.7807C359.444 93.9137 356.036 92.099 352.506 91.1615C350.315 90.5793 348.036 90.3437 345.768 90.3051C344.626 90.1157 343.47 90.0186 342.319 90.029C344.157 89.3996 345.948 88.6345 347.67 87.7375C349.446 86.8123 351.211 85.7627 352.775 84.5162C353.513 83.9273 354.209 83.2442 354.588 82.3736C354.965 81.5078 355.027 80.5561 354.882 79.6328C354.327 76.1147 351.596 73.0648 348.709 71.0956C345.394 68.8343 341.432 67.7216 337.459 67.2486C333.092 66.7276 328.613 66.8632 324.245 67.2985C319.811 67.7413 315.417 68.5856 311.142 69.8208C307.232 70.9505 303.315 72.3308 299.773 74.3339C296.542 76.1608 293.238 78.7782 291.775 82.2455C291.076 83.9019 290.947 85.6751 291.548 87.3777C292.105 88.9558 293.167 90.2984 294.457 91.3688C296.822 93.3305 299.914 94.1624 302.995 94.413C296.993 95.5012 290.945 98.2478 288.799 104.17C287.679 107.261 288.081 110.654 290.3 113.18C292.448 115.624 295.706 116.945 298.867 117.568C300.095 117.81 301.337 117.953 302.585 118.054C299.624 118.898 296.769 120.142 294.266 121.876C290.936 124.185 288.238 128.142 289.741 132.252C290.39 134.028 291.679 135.479 293.095 136.716C294.666 138.087 296.441 139.294 298.228 140.377ZM347.044 117.598C347.052 117.596 347.074 117.602 347.057 117.606C346.695 117.692 346.334 117.631 346.023 117.432C346.013 117.426 346.043 117.421 346.049 117.426C346.348 117.618 346.695 117.68 347.044 117.598ZM342.525 90.3559C342.009 90.3813 341.494 90.4153 340.98 90.4605C341.135 90.4134 341.289 90.3662 341.444 90.3173C341.805 90.3229 342.166 90.3361 342.525 90.3559Z" fill="#A665C9"/>
<path d="M315.965 123.663C319.505 123.663 322.375 117.911 322.375 110.815C322.375 103.719 319.505 97.9663 315.965 97.9663C312.425 97.9663 309.555 103.719 309.555 110.815C309.555 117.911 312.425 123.663 315.965 123.663Z" fill="#F2F2F2"/>
<path d="M315.965 117.415C317.784 117.415 319.258 114.46 319.258 110.815C319.258 107.17 317.784 104.214 315.965 104.214C314.146 104.214 312.672 107.17 312.672 110.815C312.672 114.46 314.146 117.415 315.965 117.415Z" fill="#1A1A1A"/>
<path d="M333.817 122.532C337.357 122.532 340.227 116.78 340.227 109.684C340.227 102.588 337.357 96.8354 333.817 96.8354C330.277 96.8354 327.407 102.588 327.407 109.684C327.407 116.78 330.277 122.532 333.817 122.532Z" fill="#F2F2F2"/>
<path d="M333.817 116.285C335.636 116.285 337.11 113.329 337.11 109.684C337.11 106.039 335.636 103.083 333.817 103.083C331.998 103.083 330.524 106.039 330.524 109.684C330.524 113.329 331.998 116.285 333.817 116.285Z" fill="#1A1A1A"/>
<path d="M251.315 141.542C251.734 141.68 250.604 145.274 250.453 145.652C249.925 146.974 249.159 148.185 248.253 149.28C244.693 153.58 239.393 154.446 234.234 152.748C230.36 151.473 228.011 148.831 226.788 144.967C226.697 144.681 226.613 144.393 226.501 144.024C224.689 145.664 222.642 146.593 220.352 146.972C218.59 147.263 216.828 147.123 215.099 146.715C214.46 146.565 213.792 146.338 213.258 145.972C207.588 142.088 205.234 133.499 210.071 127.969C210.348 127.652 210.619 127.329 210.987 126.898C210.611 126.795 210.369 126.708 210.121 126.664C207.76 126.243 205.786 125.043 204.052 123.484C200.921 120.668 200.212 116.661 202.117 112.909C203.55 110.086 205.488 107.729 208.473 106.401C210.673 105.421 212.998 105.183 215.373 105.253C215.956 105.27 216.537 105.337 217.345 105.398C217.068 104.886 216.874 104.528 216.681 104.17C214.747 100.593 214.478 96.9226 215.883 93.0823C217.978 87.3604 223.896 84.3977 229.712 85.6295C233.109 86.3488 236.968 88.269 238.634 91.5425C238.722 91.7148 238.831 91.8767 238.937 92.0386C238.952 92.0613 239.008 92.0568 239.132 92.0837C239.273 91.7609 239.414 91.4158 239.572 91.0778C240.016 90.1212 240.404 89.1316 240.927 88.2191C242.901 84.775 247.175 83.0462 251.025 83.8235C252.062 84.0328 252.931 84.5227 253.68 85.2455C255.744 87.2369 256.45 89.7203 256.309 92.5049C256.272 93.2308 256.211 93.9554 256.147 94.8841C256.648 94.5623 256.963 94.3576 257.28 94.1567C260.105 92.3691 263.195 91.8547 266.426 92.5261C270.204 93.3112 272.924 96.4214 273.626 100.311C274.122 103.058 273.673 105.698 272.89 108.291C272.622 109.181 271.92 109.941 271.42 110.754C272.344 111.367 273.334 111.981 274.277 112.66C276.928 114.569 278.067 117.563 277.757 120.758C277.419 124.247 275.647 127.073 272.058 127.852C270.566 128.176 269.048 128.407 267.507 128.124C267.25 128.077 266.977 128.118 266.507 128.118C266.871 128.679 267.14 129.139 267.454 129.567C268.942 131.599 269.275 133.977 269.288 136.366C269.296 137.662 268.96 139.031 268.132 140.129C267.381 141.125 266.604 142.13 265.688 142.968C264.086 144.433 262.044 144.757 259.968 144.628C256.933 144.44 254.135 143.488 251.669 141.662C251.612 141.619 251.528 141.612 251.315 141.542Z" fill="#E9642F"/>
<path d="M502.989 126.049C498.795 126.576 494.637 127.329 490.539 128.303C487.12 129.117 483.67 130.031 480.535 131.56C477.823 132.884 475.439 134.691 473.39 136.788C469.298 140.976 466.522 146.086 463.838 151.102C463.741 151.283 463.018 151.286 462.922 151.102C461.597 148.555 460.219 146.019 458.536 143.653C457.075 141.597 455.373 139.651 453.295 138.097C451.055 136.421 448.43 135.288 445.591 134.801C442.58 134.285 439.466 134.486 436.471 134.99C433.351 135.514 430.286 136.337 427.279 137.257C427.212 137.277 426.454 137.291 426.619 137.121C428.567 135.123 430.451 133.063 432.099 130.845C434.862 127.125 436.945 122.898 437.165 118.339C437.353 114.45 436.161 110.326 433.195 107.465C433.094 107.458 433.001 107.434 432.945 107.382C432.877 107.317 432.888 107.263 432.936 107.223C432.902 107.192 432.869 107.161 432.835 107.131C432.771 107.074 433.154 107.013 433.244 107.091C433.257 107.102 433.27 107.114 433.283 107.125C435.162 106.811 436.982 106.229 438.663 105.393C441.746 103.861 444.327 101.548 446.03 98.7241C447.813 95.7684 448.616 92.348 448.326 88.978C448.304 88.7231 449.083 88.8211 449.208 88.8938C451.847 90.4411 454.492 91.9927 457.293 93.2839C462.143 95.521 467.787 97.0256 473.188 95.7388C477.675 94.6705 481.532 91.7831 483.87 88.1299C483.973 87.9693 484.842 87.9492 484.8 88.1745C484.14 91.8032 483.512 95.4638 483.537 99.154C483.558 102.267 484.091 105.369 485.393 108.254C486.498 110.702 488.076 112.945 489.909 114.981C493.713 119.206 498.512 122.553 503.272 125.803C503.491 125.953 503.087 126.037 502.989 126.049Z" fill="#E9C91A"/>
<path d="M227.256 107C225.836 101.501 223.56 96.2037 220.112 91.6546C217.013 87.567 213.033 84.0906 208.371 81.8839C205.929 80.728 203.325 79.9676 200.647 79.6008C197.356 79.1509 194.02 79.2683 190.714 79.4661C187.513 79.6581 184.249 79.8053 181.169 80.772C178.239 81.6919 175.634 83.4 173.222 85.2542C168.828 88.6302 164.922 92.6376 161.644 97.095C158.346 101.578 155.678 106.524 153.773 111.748C152.691 114.716 151.878 117.77 151.161 120.844C150.459 123.848 149.811 126.868 149.322 129.914C148.379 135.775 147.988 141.854 149.273 147.696C149.578 149.083 149.98 150.449 150.482 151.779C151.004 153.159 151.6 154.601 152.464 155.808C153.289 156.959 154.463 157.643 155.78 158.112C157.254 158.636 158.789 159.026 160.319 159.351C161.935 159.694 163.572 159.946 165.217 160.1C166.628 160.233 168.061 160.326 169.476 160.178C170.742 160.046 172.032 159.71 173.082 158.966C174.107 158.237 174.783 157.175 175.198 156.006C175.632 154.785 175.806 153.491 175.952 152.21C176.121 150.712 176.297 149.218 176.552 147.733C177.092 144.595 177.896 141.49 179.079 138.529C180.154 135.842 181.495 133.081 183.493 130.946C185.317 128.999 188.085 127.419 190.828 127.93C192.832 129.004 194.137 131.08 194.836 133.187C195.717 135.847 195.627 138.624 195.315 141.375C194.951 144.57 194.276 147.818 194.647 151.044C194.803 152.406 195.207 153.767 196.086 154.848C196.829 155.761 197.838 156.414 198.919 156.866C201.375 157.895 204.179 157.986 206.805 157.902C210.017 157.799 213.208 157.275 216.277 156.326C218.937 155.503 221.549 154.299 223.555 152.334C225.618 150.314 226.822 147.609 227.631 144.883C229.487 138.628 229.659 131.993 229.509 125.519C229.366 119.298 228.815 113.043 227.256 107ZM194.134 129.983C194.037 129.854 193.936 129.728 193.832 129.604C194.136 129.933 194.399 130.297 194.615 130.687C194.465 130.445 194.304 130.211 194.134 129.983Z" fill="#DB4B77"/>
<path d="M190.888 102.183C190.888 105.225 189.635 107.977 187.614 109.953C185.641 111.884 182.935 113.075 179.95 113.075C173.908 113.075 169.011 108.198 169.011 102.183C169.011 96.5926 173.239 91.986 178.684 91.3617C179.1 91.3139 179.522 91.2896 179.95 91.2896C185.991 91.2896 190.888 96.1663 190.888 102.183Z" fill="#F2F2F2"/>
<path d="M190.888 102.183C190.888 105.225 189.635 107.977 187.614 109.953C187.199 110.001 186.778 110.025 186.35 110.025C180.308 110.025 175.411 105.149 175.411 99.1325C175.411 96.0899 176.664 93.3378 178.684 91.3617C179.1 91.3139 179.522 91.2896 179.95 91.2896C185.991 91.2896 190.888 96.1663 190.888 102.183Z" fill="#1A1A1A"/>
<path d="M215.608 101.743C215.608 104.786 214.355 107.538 212.334 109.514C210.361 111.445 207.655 112.635 204.67 112.635C198.628 112.635 193.731 107.758 193.731 101.743C193.731 96.1531 197.959 91.5465 203.404 90.9223C203.82 90.8744 204.242 90.8501 204.67 90.8501C210.711 90.8501 215.608 95.7269 215.608 101.743Z" fill="#F2F2F2"/>
<path d="M215.608 101.743C215.608 104.786 214.355 107.538 212.334 109.514C211.919 109.562 211.498 109.586 211.069 109.586C205.028 109.586 200.131 104.709 200.131 98.693C200.131 95.6505 201.384 92.8983 203.404 90.9223C203.82 90.8744 204.242 90.8501 204.67 90.8501C210.711 90.8501 215.608 95.7269 215.608 101.743Z" fill="#1A1A1A"/>
<path d="M162.178 123.001C161.954 123.624 161.311 123.962 160.733 124.196C159.915 124.526 159.062 124.782 158.229 125.071C157.339 125.379 156.448 125.687 155.558 125.994C154.683 126.297 153.81 126.603 152.936 126.908C153.057 127.527 153.166 128.148 153.263 128.772C153.457 130.027 153.601 131.289 153.692 132.555C153.879 135.112 153.852 137.681 153.623 140.235C153.6 140.487 153.003 140.44 152.854 140.403C150.33 139.778 147.792 139.205 145.244 138.691C144.074 138.454 142.902 138.231 141.728 138.018C141.692 139.672 141.544 141.33 141.334 142.954C140.997 145.548 140.435 148.112 139.657 150.61C139.562 150.915 138.91 150.819 138.705 150.709C136.727 149.648 134.755 148.577 132.788 147.495C131.798 146.95 130.8 146.412 129.824 145.843C129.476 145.64 129.125 145.439 128.781 145.228C128.56 145.513 128.263 145.77 128.042 146.013L126.908 147.257C126.119 148.123 125.33 148.988 124.542 149.854C123.129 151.405 121.716 152.956 120.303 154.507C119.75 155.114 119.253 155.883 118.354 155.904C117.443 155.926 117.067 155.275 116.71 154.546C115.801 152.687 114.887 150.829 113.99 148.964C113.389 147.715 112.794 146.461 112.284 145.174C111.986 145.217 111.685 145.248 111.398 145.292C110.731 145.394 110.063 145.494 109.394 145.592C108.107 145.78 106.817 145.959 105.526 146.129C102.891 146.476 100.25 146.765 97.6051 147.029C97.4973 147.04 96.9821 147.044 97.0687 146.823C97.7841 145.011 98.6544 143.266 99.6809 141.61C100.191 140.786 100.748 139.99 101.338 139.222C101.456 139.068 101.576 138.913 101.697 138.758C101.581 138.735 101.465 138.713 101.348 138.691C100.141 138.476 98.9244 138.316 97.7056 138.186C95.2753 137.928 92.8312 137.771 90.3907 137.649C90.3452 137.647 90.0634 137.637 90.0789 137.529C90.3731 135.453 90.8809 133.416 91.5977 131.445C91.9624 130.442 92.3851 129.464 92.8605 128.509C92.8759 128.477 92.8928 128.446 92.9082 128.415C92.5296 128.211 92.1502 128.007 91.7723 127.802C90.9175 127.341 90.0656 126.875 89.2123 126.412C88.4477 125.996 87.6853 125.578 86.9244 125.157C86.5392 124.943 86.1246 124.747 85.7606 124.499C85.5214 124.337 85.4099 124.116 85.4686 123.827C85.5376 123.489 85.7526 123.182 85.9199 122.887C86.0872 122.593 86.2574 122.302 86.4321 122.013C86.8246 121.362 87.237 120.723 87.6685 120.097C88.5336 118.841 89.4757 117.637 90.5023 116.509C90.7943 116.187 91.0923 115.865 91.3975 115.546C91.2346 115.385 91.0791 115.214 90.9213 115.052C90.514 114.63 90.1149 114.201 89.7245 113.764C89.0326 112.992 88.367 112.195 87.7287 111.378C87.3948 110.951 87.069 110.519 86.7513 110.081C86.518 109.759 86.1826 109.367 86.2054 108.938C86.2259 108.544 86.5678 108.305 86.8709 108.112C87.3112 107.83 87.7595 107.559 88.2049 107.284C89.1346 106.71 90.0686 106.141 91.0056 105.579C92.9134 104.434 94.8462 103.328 96.795 102.255C97.1656 102.051 97.5361 101.845 97.9074 101.64C97.9016 101.56 97.9016 101.473 97.9074 101.374C97.9235 101.092 97.9493 100.81 97.9735 100.528C98.0256 99.918 98.0858 99.3084 98.1554 98.6995C98.2919 97.506 98.4622 96.3154 98.6661 95.1315C98.8459 94.0862 99.0543 93.046 99.2906 92.0117C99.4131 91.4747 99.5327 90.9334 99.6802 90.403C99.7682 90.0839 99.879 89.7509 100.148 89.5374C100.875 88.9601 101.924 89.4179 102.665 89.7128C103.526 90.0554 104.373 90.4331 105.203 90.8446C106.883 91.6765 108.494 92.6477 110.014 93.7451C110.742 94.2711 111.447 94.8278 112.125 95.4169C113.424 94.2534 114.76 93.1436 116.185 92.1247C118.066 90.7794 120.048 89.6314 122.019 88.4283C122.206 88.3146 122.873 88.231 122.954 88.5252C123.868 91.8819 124.667 95.2966 125.216 98.7369C125.264 98.7091 125.311 98.6819 125.358 98.6541C126.054 98.2403 126.769 97.8559 127.488 97.4819C132.592 94.8213 137.895 92.5421 143.326 90.6341C143.424 90.5997 144.28 90.519 144.197 90.7728C143.537 92.8143 142.962 94.8822 142.477 96.9728C142.238 98.0063 142.021 99.0443 141.827 100.087C141.727 100.621 141.633 101.155 141.545 101.69C141.506 101.925 141.453 102.165 141.438 102.404C141.431 102.51 141.424 102.634 141.456 102.737C141.495 102.765 141.52 102.791 141.532 102.816C141.645 102.786 141.824 102.789 141.863 102.868C141.864 102.868 141.864 102.868 141.864 102.869C142.516 102.725 143.18 102.623 143.822 102.52C145.109 102.313 146.409 102.17 147.709 102.075C150.037 101.903 152.374 101.894 154.703 102.048C155.891 102.125 157.078 102.247 158.258 102.413C158.83 102.493 159.402 102.582 159.972 102.684C160.365 102.754 160.867 102.86 161.023 103.281C161.174 103.693 160.884 104.143 160.661 104.469C160.318 104.968 159.971 105.464 159.626 105.962C158.936 106.957 158.247 107.952 157.558 108.947C156.273 110.801 154.989 112.655 153.705 114.508C153.631 114.664 153.546 114.794 153.424 114.914C153.422 114.915 153.421 114.918 153.42 114.919H153.419C153.402 114.934 153.386 114.951 153.368 114.966C153.355 114.978 153.335 114.988 153.31 114.998C153.742 115.281 154.16 115.587 154.573 115.894C155.357 116.475 156.117 117.089 156.865 117.717C158.172 118.815 159.432 119.968 160.639 121.175C160.967 121.504 161.293 121.836 161.613 122.173C161.809 122.378 162.286 122.698 162.178 123.001Z" fill="#0E9B8B"/>
<path d="M118.255 120.223C118.255 122.68 117.197 124.891 115.511 126.424C114.022 127.778 112.043 128.604 109.872 128.604C105.241 128.604 101.488 124.851 101.488 120.223C101.488 115.594 105.241 111.842 109.872 111.842C112.043 111.842 114.022 112.668 115.511 114.022C117.197 115.555 118.255 117.765 118.255 120.223Z" fill="#F2F2F2"/>
<path d="M124.758 120.223C124.758 122.68 125.816 124.891 127.502 126.424C128.99 127.778 130.969 128.604 133.141 128.604C137.771 128.604 141.524 124.851 141.524 120.223C141.524 115.594 137.771 111.842 133.141 111.842C130.969 111.842 128.99 112.668 127.502 114.022C125.816 115.555 124.758 117.765 124.758 120.223Z" fill="#F2F2F2"/>
<path d="M42.8821 36.7909C44.4922 31.0722 45.8795 25.559 47.6328 20.1647C48.5035 17.486 49.8745 14.9241 51.3188 12.4864C54.976 6.31377 62.5128 1.57035 69.8942 1.67454C79.0618 1.80389 84.4907 9.75176 86.0486 18.0453C86.9074 22.6169 86.7005 27.1652 85.7924 31.7036C85.5451 32.9396 85.3345 34.1828 85.1206 35.3496C87.8492 33.0238 90.5194 30.7296 93.2089 28.4582C99.8273 22.8693 107.652 20.0934 116.07 18.7596C125.123 17.325 140.998 18.0302 139.277 31.0674C138.597 36.2127 135.92 40.4871 132.584 44.316C128.119 49.4409 122.631 53.3968 117.165 57.3584C115.554 58.5256 113.823 59.5468 112.315 60.8315C106.021 66.1927 102.085 72.9278 101.019 81.179C100.84 82.5693 101.052 84.1545 101.565 85.4609C104.342 92.5384 108.849 99.4286 109.343 107.201C110.138 119.702 104.764 130.559 93.7988 136.631C79.8638 144.348 63.2098 146.053 47.6771 143.291C34.9934 141.035 19.5159 135.461 15.4851 121.821C11.7565 109.203 16.7115 97.9576 19.6995 85.8204C20.718 81.6831 20.3601 77.663 18.4175 73.7169C15.7796 68.3579 13.0772 63.0681 9.74833 58.0837C7.15913 54.2068 4.84208 50.1361 2.59069 46.049C0.224263 41.753 -0.489338 37.126 0.320461 32.2421C2.25145 20.5983 14.785 19.3505 23.7301 23.5143C26.2375 24.6814 28.777 25.7813 31.2643 26.9893C35.3689 28.9829 38.9316 31.6704 41.6683 35.3755C42.021 35.8525 42.4409 36.2797 42.8821 36.7909Z" fill="#EF4400"/>
<path d="M49.9716 95.8502C49.9716 97.1172 49.8959 98.3519 49.7551 99.5431C49.7551 99.5431 49.7659 99.5537 49.7551 99.5645C48.9543 106.214 46.0432 111.542 42.2771 113.426C41.3139 113.903 40.3073 114.163 39.2576 114.163C33.3487 114.163 28.5437 105.965 28.5437 95.8502C28.5437 85.7464 33.3489 77.5488 39.2576 77.5488C45.1773 77.5487 49.9716 85.7464 49.9716 95.8502Z" fill="white"/>
<path d="M49.7552 99.5432C49.7552 99.5432 49.766 99.5538 49.7552 99.5645C48.9544 106.214 46.0432 111.542 42.2771 113.426C40.1235 111.78 38.5976 107.578 38.5976 102.662C38.5976 96.305 41.1407 91.1611 44.2901 91.1611C46.8983 91.161 49.0843 94.7022 49.7552 99.5432Z" fill="black"/>
<path d="M70.063 95.8502C70.063 97.1172 70.1386 98.3519 70.2794 99.5431C70.2794 99.5431 70.2687 99.5537 70.2794 99.5645C71.0802 106.214 73.9914 111.542 77.7575 113.426C78.7206 113.903 79.7272 114.163 80.7769 114.163C86.6858 114.163 91.4908 105.965 91.4908 95.8502C91.4908 85.7464 86.6857 77.5488 80.7769 77.5488C74.8572 77.5487 70.063 85.7464 70.063 95.8502Z" fill="white"/>
<path d="M70.2794 99.5432C70.2794 99.5432 70.2687 99.5538 70.2794 99.5645C71.0802 106.214 73.9914 111.542 77.7575 113.426C79.9111 111.78 81.437 107.578 81.437 102.662C81.437 96.305 78.8939 91.1611 75.7446 91.1611C73.1364 91.161 70.9503 94.7022 70.2794 99.5432Z" fill="black"/>
<path d="M395.102 129.117C392.91 134.268 389.186 138.84 384.301 141.424C381.368 142.975 378.128 143.693 374.866 144.007C371.501 144.331 368.073 144.273 364.757 143.543C359.083 142.294 353.548 138.733 351.299 132.984C350.348 130.553 350.059 127.868 350.124 125.229C350.065 124.818 350.016 124.406 349.976 123.994C349.641 120.558 350.003 117.081 351.069 113.807C353.076 107.647 357.5 102.278 363.458 99.9696C366.774 98.6848 370.42 98.1212 373.95 98.0349C377.481 97.9486 381.014 98.4804 384.368 99.6233C387.418 100.662 390.461 102.166 392.746 104.551C394.717 106.608 396.01 109.255 396.721 112.04C398.159 117.678 397.353 123.826 395.102 129.117Z" fill="#4C9B50"/>
<path d="M789.988 110.149C785.88 115.106 779.071 116.456 772.998 117.204C769.375 117.651 765.735 117.943 762.089 118.098C760.26 118.176 758.43 118.216 756.601 118.22C756.535 118.22 756.468 118.221 756.403 118.221C761.725 121.585 767.104 125.242 770.924 130.313C774.404 134.933 776.425 140.781 774.96 146.529C774.297 149.131 772.973 151.567 770.962 153.377C768.627 155.479 765.533 156.55 762.395 156.072C759.193 155.582 756.445 153.731 753.843 151.925C751.158 150.064 748.567 148.079 746.077 145.965C743.599 143.862 741.218 141.652 738.983 139.293C738.447 138.728 737.922 138.157 737.406 137.578C737.393 137.785 737.378 137.991 737.364 138.196C737.108 141.909 736.581 145.601 735.802 149.24C735.119 152.427 734.247 155.58 733.169 158.658C732.252 161.274 731.099 163.921 729.08 165.891C727.249 167.679 724.709 168.732 722.133 168.608C719.442 168.477 717.401 166.92 716.078 164.652C714.637 162.183 713.746 159.306 712.995 156.566C712.176 153.577 711.629 150.514 711.358 147.426C711.075 144.199 711.041 140.87 711.39 137.595C711.291 137.73 711.191 137.866 711.088 138.001C710.163 139.208 709.1 140.327 708.019 141.397C705.906 143.488 703.584 145.369 701.093 146.996C698.886 148.437 696.547 149.681 694.117 150.705C691.558 151.785 688.778 152.81 685.995 153.073C683.479 153.31 680.884 152.752 679.201 150.757C677.756 149.044 677.188 146.661 677.36 144.461C677.564 141.829 678.908 139.405 680.501 137.353C682.379 134.935 684.651 132.81 686.852 130.692C689.837 127.819 692.893 124.957 696.085 122.273C693.374 122.49 690.654 122.524 687.976 122.378C685.009 122.215 681.993 121.855 679.147 120.974C676.674 120.209 674.192 118.917 672.619 116.805C671.237 114.951 670.504 112.425 671.1 110.148C671.784 107.537 674.098 106.141 676.395 105.053C681.75 102.518 687.685 101.527 693.573 101.304C696.551 101.191 699.534 101.295 702.507 101.491C702.787 101.508 703.067 101.527 703.348 101.546C700.623 100.74 698.105 99.1142 695.927 97.3424C693.509 95.3744 691.392 93.0665 689.449 90.639C687.604 88.3345 685.842 85.928 684.238 83.4518C682.592 80.908 681.206 77.9822 681.514 74.8769C682.066 69.3021 688.111 67.1659 693.01 68.0219C696.096 68.5612 698.874 70.1216 701.437 71.8525C703.916 73.5269 706.339 75.3055 708.675 77.1726C710.516 78.6444 712.31 80.1926 713.979 81.8592C713.783 78.4084 713.541 74.94 713.692 71.4848C713.824 68.4537 714.302 65.4049 715.527 62.6087C716.66 60.0228 718.454 57.7802 720.707 56.0749C722.927 54.3959 725.782 53.0493 728.596 52.8733C731.524 52.6894 733.959 54.488 735.623 56.7482C738.709 60.9409 738.986 66.6398 738.29 71.61C737.825 74.9256 736.927 78.166 736.237 81.4384C735.888 83.0951 735.583 84.7629 735.407 86.4473C735.393 86.5758 735.382 86.7042 735.371 86.8338C735.576 86.4628 735.8 86.0975 736.039 85.733C736.982 84.2978 738.034 82.9146 739.133 81.5934C741.347 78.93 743.767 76.4417 746.368 74.1505C750.787 70.259 756.072 66.0928 762.21 65.7494C763.744 65.6641 765.342 65.8292 766.738 66.5025C767.947 67.0861 768.901 68.0563 769.565 69.2113C770.965 71.6543 771.273 74.6133 770.877 77.3619C770.007 83.4029 766.052 88.2934 761.526 92.1439C759.157 94.1605 756.611 95.9546 754.082 97.7641C753.747 98.0033 753.413 98.2426 753.078 98.4817C755.142 97.7142 757.236 97.0199 759.341 96.3875C762.993 95.29 766.707 94.3875 770.493 93.8892C773.834 93.4495 777.26 93.3067 780.617 93.6699C783.183 93.9478 785.789 94.5802 788.029 95.8958C790.331 97.2491 792.034 99.4119 792.437 102.085C792.873 104.978 791.834 107.923 789.988 110.149Z" fill="#A665C9"/>
<path d="M724.841 110.524C724.862 113.231 724.12 115.881 723.067 118.356C723.062 118.368 723.056 118.38 723.05 118.393C722.674 119.256 722.248 120.115 721.755 120.931C720.697 122.69 719.33 124.253 717.495 125.25C715.008 126.6 711.616 126.77 709.501 124.63C707.869 122.978 707.452 120.447 707.758 118.228C708.07 115.961 709.138 113.869 709.794 111.693C710.127 110.588 710.387 109.44 710.321 108.278C710.253 107.111 709.744 106.197 709.066 105.275C708.388 104.351 707.978 103.368 708.074 102.201C708.164 101.114 708.597 100.099 709.304 99.268C711.032 97.2404 713.947 97.1712 716.244 98.1835C717.497 98.735 718.597 99.5759 719.614 100.481C720.305 101.094 720.976 101.735 721.593 102.422C721.841 102.696 722.08 102.978 722.309 103.269C723.966 105.372 724.82 107.851 724.841 110.524Z" fill="#F2F2F2"/>
<path d="M722.309 103.269C722.08 102.978 721.841 102.696 721.593 102.422C720.976 101.735 720.305 101.094 719.614 100.481C718.597 99.5759 717.497 98.735 716.244 98.1835C713.947 97.1712 711.032 97.2404 709.304 99.268C708.597 100.099 708.164 101.114 708.074 102.201C707.978 103.368 708.388 104.351 709.066 105.275C709.744 106.197 710.253 107.111 710.321 108.278C710.387 109.44 710.127 110.588 709.794 111.693C709.138 113.869 708.07 115.961 707.758 118.228C707.452 120.447 707.869 122.978 709.501 124.63C711.616 126.77 715.008 126.6 717.495 125.25C719.33 124.253 720.697 122.69 721.755 120.931C722.248 120.115 722.674 119.256 723.05 118.393C723.056 118.38 723.062 118.368 723.067 118.356C724.12 115.881 724.862 113.231 724.841 110.524C724.82 107.851 723.966 105.372 722.309 103.269ZM722.117 117.802C721.149 120.034 719.881 122.29 717.855 123.734C717.791 123.778 717.728 123.823 717.664 123.866C717.603 123.908 717.541 123.948 717.477 123.987C715.586 125.183 713.085 125.692 711.073 124.482C709.219 123.367 708.659 121.023 708.779 119.003C708.901 116.951 709.829 115.009 710.494 113.091C711.149 111.197 711.743 109.107 711.25 107.104C711.015 106.154 710.499 105.389 709.932 104.607C709.298 103.731 709.002 102.811 709.251 101.73C709.785 99.4106 712.077 98.2806 714.328 98.7175C715.947 99.0325 717.356 99.9477 718.608 101.03C718.618 101.038 718.628 101.047 718.637 101.055C719.222 101.563 719.773 102.107 720.293 102.641C722.237 104.635 723.539 106.984 723.716 109.796C723.889 112.54 723.186 115.291 722.117 117.802Z" fill="#F2F2F2"/>
<path d="M724.841 110.524C724.862 113.231 724.12 115.881 723.067 118.356C723.062 118.368 723.056 118.38 723.05 118.393C722.674 119.256 722.248 120.115 721.755 120.931C721.296 121.603 720.784 122.242 720.203 122.824C720.182 122.839 720.161 122.852 720.14 122.865C719.339 123.392 718.425 123.798 717.477 123.987C716.407 124.201 715.296 124.139 714.258 123.661C712.051 122.645 711.841 120.363 712.72 118.421C713.744 116.269 715.243 114.236 715.565 111.861C715.746 110.52 715.477 109.269 715.077 107.987C714.706 106.794 714.284 105.575 714.324 104.317C714.383 102.449 715.738 101.334 717.671 101.102C717.977 101.063 718.291 101.04 718.608 101.03C719.109 101.013 719.618 101.031 720.122 101.088C720.183 101.139 720.242 101.189 720.303 101.241C720.744 101.622 721.179 102.014 721.594 102.422C721.841 102.696 722.08 102.978 722.309 103.269C723.966 105.372 724.82 107.851 724.841 110.524Z" fill="#1A1A1A"/>
<path d="M746.583 110.524C746.604 113.231 745.862 115.881 744.809 118.356C744.804 118.368 744.798 118.38 744.792 118.393C744.416 119.256 743.99 120.115 743.497 120.931C742.439 122.69 741.072 124.253 739.237 125.25C736.75 126.6 733.358 126.77 731.243 124.63C729.611 122.978 729.194 120.447 729.5 118.228C729.812 115.961 730.88 113.869 731.536 111.693C731.869 110.588 732.129 109.44 732.063 108.278C731.995 107.111 731.486 106.197 730.808 105.275C730.13 104.351 729.72 103.368 729.816 102.201C729.906 101.114 730.339 100.099 731.046 99.268C732.774 97.2404 735.689 97.1712 737.986 98.1835C739.239 98.735 740.339 99.5759 741.356 100.481C742.047 101.094 742.717 101.735 743.335 102.422C743.583 102.696 743.822 102.978 744.051 103.269C745.708 105.372 746.562 107.851 746.583 110.524Z" fill="#F2F2F2"/>
<path d="M744.051 103.269C743.822 102.978 743.583 102.696 743.335 102.422C742.717 101.735 742.047 101.094 741.356 100.481C740.339 99.5759 739.239 98.735 737.986 98.1835C735.689 97.1712 732.774 97.2404 731.046 99.268C730.339 100.099 729.906 101.114 729.816 102.201C729.72 103.368 730.13 104.351 730.808 105.275C731.486 106.197 731.995 107.111 732.063 108.278C732.129 109.44 731.869 110.588 731.536 111.693C730.88 113.869 729.812 115.961 729.5 118.228C729.194 120.447 729.611 122.978 731.243 124.63C733.358 126.77 736.75 126.6 739.237 125.25C741.072 124.253 742.439 122.69 743.497 120.931C743.99 120.115 744.416 119.256 744.792 118.393C744.798 118.38 744.804 118.368 744.809 118.356C745.862 115.881 746.604 113.231 746.583 110.524C746.562 107.851 745.708 105.372 744.051 103.269ZM743.859 117.802C742.891 120.034 741.623 122.29 739.597 123.734C739.533 123.778 739.47 123.823 739.406 123.866C739.345 123.908 739.282 123.948 739.219 123.987C737.328 125.183 734.827 125.692 732.815 124.482C730.961 123.367 730.401 121.023 730.521 119.003C730.643 116.951 731.571 115.009 732.236 113.091C732.891 111.197 733.485 109.107 732.992 107.104C732.756 106.154 732.241 105.389 731.674 104.607C731.039 103.731 730.744 102.811 730.993 101.73C731.527 99.4106 733.819 98.2806 736.07 98.7175C737.689 99.0325 739.098 99.9477 740.35 101.03C740.36 101.038 740.37 101.047 740.379 101.055C740.964 101.563 741.515 102.107 742.035 102.641C743.979 104.635 745.28 106.984 745.458 109.796C745.631 112.54 744.928 115.291 743.859 117.802Z" fill="#F2F2F2"/>
<path d="M746.583 110.524C746.603 113.231 745.862 115.881 744.809 118.356C744.804 118.368 744.798 118.38 744.792 118.393C744.416 119.256 743.99 120.115 743.497 120.931C743.038 121.603 742.526 122.242 741.945 122.824C741.924 122.839 741.902 122.852 741.882 122.865C741.081 123.392 740.167 123.798 739.219 123.987C738.149 124.201 737.038 124.139 736 123.661C733.793 122.645 733.583 120.363 734.462 118.421C735.485 116.269 736.985 114.236 737.307 111.861C737.488 110.52 737.219 109.269 736.819 107.987C736.448 106.794 736.026 105.575 736.066 104.317C736.125 102.449 737.48 101.334 739.413 101.102C739.719 101.063 740.033 101.04 740.35 101.03C740.851 101.013 741.36 101.031 741.864 101.088C741.925 101.139 741.984 101.189 742.044 101.241C742.486 101.622 742.921 102.014 743.335 102.422C743.583 102.696 743.822 102.978 744.051 103.269C745.708 105.372 746.562 107.851 746.583 110.524Z" fill="#1A1A1A"/>
<path d="M704.047 128.485C703.758 129.291 702.927 129.728 702.18 130.029C701.123 130.456 700.02 130.788 698.944 131.16C697.792 131.558 696.642 131.956 695.49 132.354C694.36 132.745 693.231 133.14 692.102 133.534C692.258 134.333 692.399 135.136 692.525 135.942C692.775 137.564 692.961 139.195 693.079 140.831C693.32 144.135 693.286 147.454 692.989 150.753C692.96 151.079 692.188 151.019 691.995 150.971C688.733 150.163 685.453 149.423 682.159 148.758C680.647 148.453 679.132 148.164 677.614 147.889C677.568 150.026 677.377 152.168 677.105 154.267C676.669 157.619 675.943 160.931 674.938 164.159C674.814 164.553 673.972 164.429 673.706 164.287C671.15 162.916 668.601 161.532 666.059 160.134C664.779 159.429 663.49 158.735 662.227 157.999C661.778 157.738 661.325 157.477 660.88 157.205C660.594 157.574 660.21 157.905 659.924 158.219L658.458 159.827C657.439 160.945 656.419 162.063 655.401 163.182C653.574 165.186 651.747 167.19 649.921 169.194C649.206 169.979 648.564 170.972 647.401 170.999C646.224 171.028 645.738 170.187 645.277 169.245C644.102 166.842 642.921 164.442 641.761 162.032C640.984 160.418 640.215 158.798 639.556 157.135C639.171 157.191 638.782 157.231 638.41 157.287C637.548 157.42 636.685 157.549 635.821 157.675C634.156 157.918 632.489 158.149 630.821 158.369C627.415 158.817 624.001 159.192 620.582 159.532C620.443 159.546 619.777 159.552 619.889 159.266C620.814 156.924 621.939 154.67 623.265 152.53C623.925 151.466 624.644 150.437 625.407 149.444C625.56 149.245 625.715 149.045 625.872 148.845C625.722 148.816 625.571 148.786 625.42 148.759C623.86 148.481 622.288 148.274 620.712 148.106C617.571 147.772 614.412 147.57 611.257 147.412C611.198 147.409 610.834 147.397 610.854 147.258C611.234 144.574 611.891 141.942 612.817 139.396C613.289 138.1 613.835 136.837 614.45 135.603C614.469 135.562 614.491 135.522 614.511 135.481C614.022 135.218 613.531 134.954 613.043 134.69C611.938 134.094 610.837 133.492 609.734 132.893C608.746 132.356 607.76 131.816 606.777 131.271C606.279 130.995 605.743 130.742 605.272 130.422C604.963 130.212 604.819 129.927 604.895 129.553C604.984 129.117 605.262 128.72 605.478 128.339C605.694 127.959 605.915 127.582 606.14 127.209C606.648 126.368 607.181 125.542 607.738 124.734C608.857 123.111 610.074 121.555 611.401 120.097C611.779 119.682 612.164 119.265 612.558 118.854C612.348 118.645 612.147 118.425 611.943 118.215C611.417 117.67 610.901 117.116 610.396 116.552C609.502 115.554 608.641 114.524 607.816 113.468C607.385 112.917 606.964 112.358 606.553 111.792C606.251 111.377 605.818 110.869 605.847 110.316C605.874 109.806 606.316 109.498 606.707 109.248C607.277 108.884 607.856 108.534 608.432 108.179C609.633 107.437 610.841 106.702 612.052 105.975C614.518 104.496 617.016 103.067 619.535 101.681C620.014 101.417 620.493 101.151 620.973 100.886C620.965 100.783 620.965 100.67 620.973 100.542C620.994 100.177 621.027 99.8134 621.058 99.4494C621.126 98.6608 621.204 97.8732 621.294 97.0865C621.47 95.5444 621.69 94.0061 621.954 92.4764C622.186 91.1257 622.456 89.7818 622.761 88.4453C622.919 87.7515 623.074 87.052 623.264 86.3668C623.378 85.9544 623.521 85.5242 623.869 85.2484C624.81 84.5025 626.165 85.0939 627.123 85.4749C628.235 85.9176 629.33 86.4057 630.403 86.9374C632.575 88.0122 634.657 89.2671 636.621 90.685C637.563 91.3646 638.474 92.084 639.351 92.8451C641.029 91.3418 642.756 89.9078 644.598 88.5914C647.03 86.8531 649.591 85.3698 652.139 83.8153C652.381 83.6684 653.243 83.5603 653.347 83.9404C654.529 88.2776 655.562 92.6896 656.272 97.1348C656.334 97.0989 656.394 97.0637 656.455 97.0278C657.355 96.4932 658.279 95.9966 659.208 95.5132C665.806 92.0755 672.66 89.1307 679.68 86.6654C679.807 86.6209 680.913 86.5166 680.806 86.8446C679.953 89.4823 679.209 92.1542 678.583 94.8554C678.274 96.1909 677.993 97.532 677.742 98.8798C677.613 99.5689 677.492 100.259 677.378 100.95C677.327 101.254 677.259 101.564 677.239 101.873C677.231 102.01 677.222 102.17 677.263 102.303C677.313 102.339 677.346 102.373 677.361 102.405C677.507 102.367 677.739 102.371 677.789 102.472C677.79 102.472 677.79 102.473 677.79 102.474C678.633 102.287 679.491 102.155 680.321 102.023C681.985 101.755 683.665 101.571 685.346 101.447C688.355 101.226 691.375 101.214 694.385 101.412C695.922 101.513 697.455 101.67 698.98 101.884C699.72 101.989 700.46 102.103 701.196 102.235C701.704 102.325 702.353 102.462 702.554 103.007C702.75 103.538 702.375 104.12 702.087 104.541C701.644 105.186 701.195 105.826 700.749 106.47C699.858 107.756 698.966 109.041 698.076 110.327C696.415 112.723 694.755 115.118 693.095 117.512C693 117.714 692.89 117.881 692.732 118.037C692.73 118.039 692.728 118.042 692.727 118.043H692.725C692.705 118.063 692.683 118.084 692.66 118.104C692.643 118.119 692.617 118.133 692.585 118.145C693.144 118.511 693.683 118.907 694.217 119.303C695.231 120.054 696.214 120.847 697.18 121.658C698.869 123.077 700.499 124.567 702.058 126.126C702.483 126.552 702.903 126.981 703.318 127.416C703.57 127.681 704.188 128.094 704.047 128.485Z" fill="#0E9B8B"/>
</svg>
