<svg width="174" height="53" viewBox="0 0 174 53" fill="none" xmlns="http://www.w3.org/2000/svg">
<path d="M7.65102 21.5803L15.302 38.09L22.9227 21.5803H30.6041L15.2413 53L0 21.5803H7.65102Z" fill="#262624"/>
<path d="M61.0867 37.8787H39.8946C40.0768 40.2933 40.8662 42.2149 42.2628 43.6435C43.6594 45.052 45.4507 45.7563 47.6367 45.7563C49.3369 45.7563 50.7437 45.3538 51.8569 44.549C52.9499 43.7441 54.1947 42.2551 55.5913 40.082L61.36 43.2813C60.4694 44.7904 59.5282 46.0883 58.5364 47.1748C57.5446 48.2413 56.4819 49.1266 55.3485 49.8309C54.215 50.515 52.9904 51.018 51.6748 51.34C50.3591 51.6619 48.9321 51.8229 47.3938 51.8229C42.9813 51.8229 39.4392 50.4144 36.7674 47.5974C34.0956 44.7603 32.7597 40.9975 32.7597 36.3092C32.7597 31.6612 34.0551 27.8984 36.646 25.0211C39.257 22.1839 42.7182 20.7654 47.0295 20.7654C51.3813 20.7654 54.8222 22.1437 57.3523 24.9003C59.8622 27.6369 61.1171 31.4298 61.1171 36.279L61.0867 37.8787ZM54.0733 32.3252C53.122 28.7033 50.8246 26.8924 47.1813 26.8924C46.3514 26.8924 45.5722 27.0232 44.8435 27.2847C44.1148 27.5262 43.4469 27.8884 42.8396 28.3713C42.2527 28.8341 41.7466 29.3975 41.3216 30.0615C40.8965 30.7255 40.5727 31.4801 40.35 32.3252H54.0733Z" fill="#262624"/>
<path d="M75.4172 0V50.9778H68.5859V0H75.4172Z" fill="#262624"/>
<path d="M90.9014 0V50.9778H84.0702V0H90.9014Z" fill="#262624"/>
<path d="M106.386 21.5803V38.4522C106.386 43.3216 108.319 45.7563 112.185 45.7563C116.051 45.7563 117.984 43.3216 117.984 38.4522V21.5803H124.815V38.6031C124.815 40.9573 124.521 42.9896 123.934 44.6999C123.368 46.2291 122.386 47.6074 120.989 48.8349C118.682 50.8269 115.747 51.8229 112.185 51.8229C108.642 51.8229 105.718 50.8269 103.41 48.8349C101.993 47.6074 100.991 46.2291 100.404 44.6999C99.8377 43.3316 99.5544 41.2994 99.5544 38.6031V21.5803H106.386Z" fill="#262624"/>
<path d="M133.437 21.5803H140.269V24.2967C141.584 22.9284 142.708 22.0028 143.639 21.5199C144.631 21.0169 145.875 20.7654 147.373 20.7654C150.713 20.7654 153.354 22.2141 155.298 25.1116C157.443 22.2141 160.348 20.7654 164.011 20.7654C170.67 20.7654 174 24.7796 174 32.8081V50.9778H167.138V34.6492C167.138 31.8322 166.794 29.8402 166.106 28.6731C165.398 27.486 164.234 26.8924 162.615 26.8924C160.732 26.8924 159.356 27.5966 158.485 29.0051C157.635 30.4136 157.21 32.6773 157.21 35.7961V50.9778H150.349V34.7397C150.349 29.5082 148.831 26.8924 145.794 26.8924C143.872 26.8924 142.465 27.6067 141.574 29.0353C140.704 30.4639 140.269 32.7175 140.269 35.7961V50.9778H133.437V21.5803Z" fill="#262624"/>
</svg>
