<svg preserveAspectRatio="none" width="100%" height="100%" overflow="visible" style="display: block;" viewBox="0 0 92 28" fill="none" xmlns="http://www.w3.org/2000/svg">
<g id="vellum">
<path d="M4.04537 11.4009L8.09073 20.123L12.12 11.4009H16.1815L8.05863 28L0 11.4009H4.04537Z" fill="#FDFDFC"/>
<path d="M32.2987 20.0114H21.0937C21.19 21.287 21.6074 22.3022 22.3458 23.0569C23.0843 23.8011 24.0314 24.1731 25.1872 24.1731C26.0862 24.1731 26.83 23.9605 27.4186 23.5353C27.9965 23.1101 28.6547 22.3235 29.3931 21.1754L32.4432 22.8656C31.9723 23.6629 31.4747 24.3485 30.9503 24.9226C30.4259 25.486 29.864 25.9537 29.2647 26.3257C28.6654 26.6872 28.0179 26.9529 27.3223 27.123C26.6267 27.2931 25.8722 27.3781 25.0588 27.3781C22.7258 27.3781 20.8529 26.634 19.4402 25.1458C18.0276 23.6469 17.3212 21.6591 17.3212 19.1822C17.3212 16.7267 18.0062 14.7388 19.376 13.2187C20.7566 11.7198 22.5866 10.9704 24.8662 10.9704C27.1671 10.9704 28.9864 11.6986 30.3242 13.1549C31.6513 14.6006 32.3148 16.6044 32.3148 19.1663L32.2987 20.0114ZM28.5905 17.0774C28.0875 15.164 26.8728 14.2073 24.9464 14.2073C24.5076 14.2073 24.0956 14.2764 23.7103 14.4146C23.3251 14.5421 22.9719 14.7335 22.6508 14.9886C22.3405 15.2331 22.0729 15.5308 21.8482 15.8815C21.6235 16.2323 21.4522 16.631 21.3345 17.0774H28.5905Z" fill="#FDFDFC"/>
<path d="M39.8758 0V26.9317H36.2638V0H39.8758Z" fill="#FDFDFC"/>
<path d="M48.0628 0V26.9317H44.4509V0H48.0628Z" fill="#FDFDFC"/>
<path d="M56.2499 11.4009V20.3144C56.2499 22.8869 57.2719 24.1731 59.316 24.1731C61.3601 24.1731 62.3821 22.8869 62.3821 20.3144V11.4009H65.9941V20.3941C65.9941 21.6378 65.8389 22.7115 65.5285 23.615C65.2289 24.4229 64.7098 25.1511 63.9714 25.7995C62.7514 26.8519 61.1996 27.3781 59.316 27.3781C57.4431 27.3781 55.8967 26.8519 54.6767 25.7995C53.9275 25.1511 53.3978 24.4229 53.0874 23.615C52.7878 22.8922 52.6379 21.8185 52.6379 20.3941V11.4009H56.2499Z" fill="#FDFDFC"/>
<path d="M70.5531 11.4009H74.1651V12.836C74.8607 12.1131 75.4547 11.6241 75.947 11.369C76.4714 11.1033 77.1295 10.9704 77.9215 10.9704C79.6873 10.9704 81.0839 11.7358 82.1113 13.2665C83.2457 11.7358 84.7815 10.9704 86.7186 10.9704C90.2395 10.9704 92 13.0911 92 17.3326V26.9317H88.372V18.3052C88.372 16.817 88.1901 15.7646 87.8262 15.1481C87.4516 14.5209 86.8363 14.2073 85.9801 14.2073C84.9848 14.2073 84.2571 14.5793 83.7969 15.3235C83.3474 16.0676 83.1227 17.2635 83.1227 18.9112V26.9317H79.4947V18.3531C79.4947 15.5892 78.692 14.2073 77.0867 14.2073C76.07 14.2073 75.3262 14.5847 74.8554 15.3394C74.3952 16.0942 74.1651 17.2847 74.1651 18.9112V26.9317H70.5531V11.4009Z" fill="#FDFDFC"/>
</g>
</svg>
