<svg viewBox="0 0 16 16" xmlns="http://www.w3.org/2000/svg">
  <rect x="0" y="0" width="16" height="16" fill="#87CEEB"/>
  <rect x="3" y="2" width="10" height="1" fill="#FFFFFF"/>
  <rect x="2" y="3" width="12" height="1" fill="#FFFFFF"/>
  <rect x="1" y="4" width="14" height="2" fill="#FFFFFF"/>
  <rect x="2" y="6" width="12" height="1" fill="#FFFFFF"/>
  <rect x="3" y="7" width="10" height="1" fill="#FFFFFF"/>
  <rect x="4" y="8" width="8" height="1" fill="#87CEEB"/>
  <rect x="2" y="9" width="3" height="1" fill="#4A90E2"/>
  <rect x="6" y="9" width="1" height="1" fill="#4A90E2"/>
  <rect x="9" y="9" width="1" height="1" fill="#4A90E2"/>
  <rect x="12" y="9" width="2" height="1" fill="#4A90E2"/>
  <rect x="1" y="10" width="4" height="1" fill="#4A90E2"/>
  <rect x="6" y="10" width="1" height="1" fill="#4A90E2"/>
  <rect x="9" y="10" width="1" height="1" fill="#4A90E2"/>
  <rect x="12" y="10" width="3" height="1" fill="#4A90E2"/>
  <rect x="2" y="11" width="3" height="1" fill="#4A90E2"/>
  <rect x="6" y="11" width="1" height="1" fill="#4A90E2"/>
  <rect x="9" y="11" width="1" height="1" fill="#4A90E2"/>
  <rect x="12" y="11" width="2" height="1" fill="#4A90E2"/>
  <rect x="3" y="12" width="2" height="1" fill="#4A90E2"/>
  <rect x="7" y="12" width="1" height="1" fill="#4A90E2"/>
  <rect x="11" y="12" width="2" height="1" fill="#4A90E2"/>
</svg>