<svg viewBox="0 0 16 16" xmlns="http://www.w3.org/2000/svg">
  <rect width="16" height="16" fill="#0f172a"/>
  <rect x="2" y="2" width="12" height="12" fill="#1e293b"/>
  <rect x="3" y="3" width="10" height="10" fill="#0f172a" stroke="#3b82f6" stroke-width="1"/>
  <rect x="4" y="4" width="2" height="2" fill="#3b82f6"/>
  <rect x="10" y="4" width="2" height="2" fill="#3b82f6"/>
  <rect x="4" y="10" width="2" height="2" fill="#3b82f6"/>
  <rect x="10" y="10" width="2" height="2" fill="#3b82f6"/>
  <line x1="5" y1="5" x2="11" y2="5" stroke="#10b981" stroke-width="1"/>
  <line x1="5" y1="5" x2="5" y2="11" stroke="#10b981" stroke-width="1"/>
  <line x1="11" y1="5" x2="11" y2="11" stroke="#10b981" stroke-width="1"/>
  <line x1="5" y1="11" x2="11" y2="11" stroke="#10b981" stroke-width="1"/>
  <rect x="7" y="7" width="2" height="2" fill="#f59e0b"/>
  <line x1="5" y1="8" x2="7" y2="8" stroke="#60a5fa" stroke-width="1"/>
  <line x1="9" y1="8" x2="11" y2="8" stroke="#60a5fa" stroke-width="1"/>
  <line x1="8" y1="5" x2="8" y2="7" stroke="#60a5fa" stroke-width="1"/>
  <line x1="8" y1="9" x2="8" y2="11" stroke="#60a5fa" stroke-width="1"/>
</svg>