<?xml version="1.0" encoding="UTF-8"?>
<svg xmlns="http://www.w3.org/2000/svg" xmlns:xlink="http://www.w3.org/1999/xlink" width="40.5pt" height="60pt" viewBox="0 0 40.5 60">
<path fill-rule="nonzero" fill="rgb(3.921509%, 81.175232%, 51.371765%)" fill-opacity="1" d="M 10 60 C 15.519531 60 20 55.519531 20 50 L 20 40 L 10 40 C 4.480469 40 0 44.480469 0 50 C 0 55.519531 4.480469 60 10 60 Z M 10 60 "/>
<path fill-rule="nonzero" fill="rgb(63.528442%, 34.901428%, 100%)" fill-opacity="1" d="M 0 30 C 0 24.480469 4.480469 20 10 20 L 20 20 L 20 40 L 10 40 C 4.480469 40 0 35.519531 0 30 Z M 0 30 "/>
<path fill-rule="nonzero" fill="rgb(94.900513%, 30.587769%, 11.764526%)" fill-opacity="1" d="M 0 10 C 0 4.480469 4.480469 0 10 0 L 20 0 L 20 20 L 10 20 C 4.480469 20 0 15.519531 0 10 Z M 0 10 "/>
<path fill-rule="nonzero" fill="rgb(100%, 44.7052%, 38.430786%)" fill-opacity="1" d="M 20 0 L 30 0 C 35.519531 0 40 4.480469 40 10 C 40 15.519531 35.519531 20 30 20 L 20 20 Z M 20 0 "/>
<path fill-rule="nonzero" fill="rgb(10.195923%, 73.724365%, 99.606323%)" fill-opacity="1" d="M 40 30 C 40 35.519531 35.519531 40 30 40 C 24.480469 40 20 35.519531 20 30 C 20 24.480469 24.480469 20 30 20 C 35.519531 20 40 24.480469 40 30 Z M 40 30 "/>
</svg>
