<?xml version="1.0" encoding="UTF-8"?>
<svg xmlns="http://www.w3.org/2000/svg" xmlns:xlink="http://www.w3.org/1999/xlink" width="384pt" height="384pt" viewBox="0 0 384 384">
<path fill-rule="nonzero" fill="rgb(100%, 100%, 100%)" fill-opacity="1" d="M 90.949219 90.949219 L 293.050781 90.949219 L 293.050781 293.050781 L 90.949219 293.050781 Z M 90.949219 90.949219 "/>
<path fill-rule="nonzero" fill="rgb(91.763306%, 26.274109%, 20.783997%)" fill-opacity="1" d="M 293.050781 384 L 384 293.050781 L 338.527344 285.292969 L 293.050781 293.050781 L 284.753906 334.648438 Z M 293.050781 384 "/>
<path fill-rule="nonzero" fill="rgb(9.411621%, 50.195312%, 21.960449%)" fill-opacity="1" d="M 0 293.050781 L 0 353.683594 C 0 370.433594 13.566406 384 30.316406 384 L 90.949219 384 L 100.285156 338.527344 L 90.949219 293.050781 L 41.398438 285.292969 Z M 0 293.050781 "/>
<path fill-rule="nonzero" fill="rgb(9.803772%, 40.391541%, 82.351685%)" fill-opacity="1" d="M 384 90.949219 L 384 30.316406 C 384 13.566406 370.433594 0 353.683594 0 L 293.050781 0 C 287.519531 22.554688 284.753906 39.152344 284.753906 49.792969 C 284.753906 60.433594 287.519531 74.152344 293.050781 90.949219 C 313.167969 96.707031 328.324219 99.589844 338.527344 99.589844 C 348.726562 99.589844 363.886719 96.707031 384 90.949219 Z M 384 90.949219 "/>
<path fill-rule="nonzero" fill="rgb(98.431396%, 73.724365%, 1.568604%)" fill-opacity="1" d="M 293.050781 90.949219 L 384 90.949219 L 384 293.050781 L 293.050781 293.050781 Z M 293.050781 90.949219 "/>
<path fill-rule="nonzero" fill="rgb(20.391846%, 65.881348%, 32.548523%)" fill-opacity="1" d="M 90.949219 293.050781 L 293.050781 293.050781 L 293.050781 384 L 90.949219 384 Z M 90.949219 293.050781 "/>
<path fill-rule="nonzero" fill="rgb(25.881958%, 52.156067%, 95.684814%)" fill-opacity="1" d="M 293.050781 0 L 30.316406 0 C 13.566406 0 0 13.566406 0 30.316406 L 0 293.050781 L 90.949219 293.050781 L 90.949219 90.949219 L 293.050781 90.949219 Z M 293.050781 0 "/>
<path fill-rule="nonzero" fill="rgb(25.881958%, 52.156067%, 95.684814%)" fill-opacity="1" d="M 132.40625 247.730469 C 124.851562 242.628906 119.621094 235.175781 116.765625 225.320312 L 134.300781 218.097656 C 135.890625 224.160156 138.667969 228.859375 142.636719 232.195312 C 146.578125 235.527344 151.378906 237.171875 156.984375 237.171875 C 162.71875 237.171875 167.644531 235.425781 171.761719 231.941406 C 175.882812 228.453125 177.953125 224.007812 177.953125 218.628906 C 177.953125 213.121094 175.78125 208.621094 171.4375 205.136719 C 167.089844 201.652344 161.632812 199.90625 155.117188 199.90625 L 144.984375 199.90625 L 144.984375 182.554688 L 154.078125 182.554688 C 159.6875 182.554688 164.410156 181.035156 168.253906 178.003906 C 172.09375 174.972656 174.011719 170.828125 174.011719 165.550781 C 174.011719 160.851562 172.292969 157.113281 168.859375 154.308594 C 165.425781 151.503906 161.078125 150.089844 155.796875 150.089844 C 150.644531 150.089844 146.550781 151.453125 143.519531 154.207031 C 140.488281 156.964844 138.210938 160.453125 136.902344 164.335938 L 119.546875 157.113281 C 121.84375 150.59375 126.0625 144.835938 132.253906 139.855469 C 138.441406 134.878906 146.347656 132.378906 155.949219 132.378906 C 163.046875 132.378906 169.441406 133.746094 175.097656 136.496094 C 180.757812 139.25 185.203125 143.066406 188.410156 147.917969 C 191.621094 152.792969 193.210938 158.25 193.210938 164.3125 C 193.210938 170.5 191.722656 175.730469 188.742188 180.027344 C 185.761719 184.320312 182.097656 187.601562 177.75 189.902344 L 177.75 190.9375 C 183.363281 193.25 188.238281 197.050781 191.847656 201.929688 C 195.511719 206.855469 197.355469 212.742188 197.355469 219.613281 C 197.355469 226.484375 195.613281 232.621094 192.125 238.003906 C 188.640625 243.386719 183.816406 247.628906 177.699219 250.710938 C 171.5625 253.792969 164.664062 255.363281 157.011719 255.363281 C 148.144531 255.386719 139.960938 252.835938 132.40625 247.730469 Z M 240.097656 160.722656 L 220.847656 174.644531 L 211.222656 160.042969 L 245.757812 135.132812 L 258.996094 135.132812 L 258.996094 252.632812 L 240.097656 252.632812 Z M 240.097656 160.722656 "/>
</svg>
