<?xml version="1.0" encoding="UTF-8"?>
<svg xmlns="http://www.w3.org/2000/svg" xmlns:xlink="http://www.w3.org/1999/xlink" width="18pt" height="18pt" viewBox="0 0 18 18">
<path fill-rule="nonzero" fill="rgb(0%, 32.156372%, 79.998779%)" fill-opacity="1" d="M 8.679688 8.632812 L 0 8.632812 C 0 9.675781 0.414062 10.671875 1.152344 11.402344 C 1.886719 12.136719 2.882812 12.546875 3.925781 12.546875 L 5.523438 12.546875 L 5.523438 14.089844 C 5.523438 16.25 7.273438 18 9.429688 18 L 9.429688 9.386719 C 9.429688 8.972656 9.09375 8.632812 8.675781 8.632812 Z M 12.96875 4.316406 L 4.300781 4.316406 C 4.300781 6.476562 6.054688 8.226562 8.214844 8.226562 L 9.808594 8.226562 L 9.808594 9.773438 C 9.8125 11.929688 11.5625 13.679688 13.722656 13.683594 L 13.722656 5.070312 C 13.722656 4.652344 13.386719 4.316406 12.96875 4.316406 Z M 17.257812 0 L 8.589844 0 C 8.589844 2.160156 10.34375 3.910156 12.503906 3.910156 L 14.097656 3.910156 L 14.097656 5.453125 C 14.101562 7.609375 15.84375 9.355469 18 9.363281 L 18 0.753906 C 18 0.34375 17.671875 0.00390625 17.257812 0 Z M 17.257812 0 "/>
</svg>
