<?xml version="1.0" encoding="UTF-8"?>
<svg xmlns="http://www.w3.org/2000/svg" xmlns:xlink="http://www.w3.org/1999/xlink" width="18pt" height="18pt" viewBox="0 0 18 18">
<path fill-rule="nonzero" fill="rgb(0%, 0%, 0%)" fill-opacity="1" d="M 3.34375 3.15625 C 3.902344 3.609375 4.113281 3.574219 5.164062 3.503906 L 15.078125 2.910156 C 15.285156 2.910156 15.113281 2.699219 15.042969 2.667969 L 13.394531 1.476562 C 13.078125 1.230469 12.660156 0.949219 11.855469 1.019531 L 2.257812 1.722656 C 1.90625 1.753906 1.835938 1.929688 1.976562 2.070312 Z M 3.9375 5.464844 L 3.9375 15.894531 C 3.9375 16.453125 4.21875 16.664062 4.847656 16.628906 L 15.742188 16 C 16.371094 15.964844 16.441406 15.578125 16.441406 15.125 L 16.441406 4.765625 C 16.441406 4.3125 16.269531 4.066406 15.882812 4.101562 L 4.5 4.765625 C 4.078125 4.800781 3.9375 5.011719 3.9375 5.464844 Z M 14.691406 6.023438 C 14.761719 6.339844 14.691406 6.65625 14.375 6.691406 L 13.851562 6.796875 L 13.851562 14.492188 C 13.394531 14.738281 12.976562 14.878906 12.625 14.878906 C 12.066406 14.878906 11.925781 14.703125 11.503906 14.179688 L 8.070312 8.789062 L 8.070312 14.003906 L 9.15625 14.25 C 9.15625 14.25 9.15625 14.878906 8.28125 14.878906 L 5.863281 15.019531 C 5.796875 14.878906 5.863281 14.53125 6.109375 14.460938 L 6.742188 14.285156 L 6.742188 7.390625 L 5.867188 7.320312 C 5.796875 7.003906 5.972656 6.550781 6.460938 6.515625 L 9.054688 6.339844 L 12.625 11.800781 L 12.625 6.96875 L 11.714844 6.867188 C 11.644531 6.480469 11.925781 6.199219 12.273438 6.164062 Z M 1.453125 0.777344 L 11.433594 0.0429688 C 12.660156 -0.0625 12.976562 0.0078125 13.746094 0.566406 L 16.933594 2.804688 C 17.457031 3.191406 17.632812 3.296875 17.632812 3.714844 L 17.632812 16 C 17.632812 16.769531 17.351562 17.222656 16.375 17.292969 L 4.78125 17.992188 C 4.042969 18.027344 3.695312 17.925781 3.308594 17.433594 L 0.960938 14.390625 C 0.542969 13.828125 0.367188 13.410156 0.367188 12.917969 L 0.367188 2 C 0.367188 1.371094 0.648438 0.84375 1.453125 0.777344 Z M 1.453125 0.777344 "/>
</svg>
