<svg viewBox="0 0 16 16" xmlns="http://www.w3.org/2000/svg">
  <rect width="16" height="16" fill="#f0f0f0"/>
  
  <!-- Left task list (template layer) -->
  <rect x="1" y="2" width="6" height="12" fill="#e8f4f8" stroke="#4a90e2" stroke-width="0.5"/>
  <rect x="2" y="3" width="4" height="1" fill="#4a90e2"/>
  <rect x="2" y="5" width="1" height="1" fill="#2ecc71"/>
  <rect x="4" y="5" width="2" height="1" fill="#95a5a6"/>
  <rect x="2" y="7" width="1" height="1" fill="#2ecc71"/>
  <rect x="4" y="7" width="2" height="1" fill="#95a5a6"/>
  <rect x="2" y="9" width="1" height="1" fill="#2ecc71"/>
  <rect x="4" y="9" width="2" height="1" fill="#95a5a6"/>
  <rect x="2" y="11" width="1" height="1" fill="#2ecc71"/>
  <rect x="4" y="11" width="2" height="1" fill="#95a5a6"/>
  
  <!-- Right task queue (prioritized work) -->
  <rect x="9" y="2" width="6" height="12" fill="#fff4e6" stroke="#f39c12" stroke-width="0.5"/>
  <rect x="10" y="3" width="4" height="1" fill="#f39c12"/>
  
  <!-- Priority indicators (arrows) -->
  <rect x="10" y="5" width="1" height="1" fill="#e74c3c"/>
  <rect x="12" y="5" width="2" height="1" fill="#95a5a6"/>
  
  <rect x="10" y="7" width="1" height="1" fill="#f39c12"/>
  <rect x="12" y="7" width="2" height="1" fill="#95a5a6"/>
  
  <rect x="10" y="9" width="1" height="1" fill="#2ecc71"/>
  <rect x="12" y="9" width="2" height="1" fill="#95a5a6"/>
  
  <!-- Connection arrow between lists -->
  <rect x="7" y="7" width="2" height="1" fill="#4a90e2" opacity="0.6"/>
  <rect x="8" y="6" width="1" height="1" fill="#4a90e2" opacity="0.6"/>
  <rect x="8" y="8" width="1" height="1" fill="#4a90e2" opacity="0.6"/>
</svg>