<svg viewBox="0 0 16 16" xmlns="http://www.w3.org/2000/svg">
  <rect x="7" y="1" width="2" height="2" fill="#4A90E2"/>
  <rect x="6" y="3" width="4" height="1" fill="#4A90E2"/>
  <rect x="5" y="4" width="6" height="1" fill="#7B68EE"/>
  <rect x="4" y="5" width="8" height="1" fill="#7B68EE"/>
  <rect x="4" y="6" width="8" height="1" fill="#4A90E2"/>
  <rect x="5" y="7" width="6" height="1" fill="#4A90E2"/>
  <rect x="6" y="8" width="4" height="1" fill="#7B68EE"/>
  <rect x="7" y="9" width="2" height="1" fill="#7B68EE"/>
  <rect x="3" y="10" width="2" height="4" fill="#50C878"/>
  <rect x="4" y="10" width="1" height="1" fill="#50C878"/>
  <rect x="5" y="11" width="1" height="1" fill="#50C878"/>
  <rect x="11" y="10" width="2" height="4" fill="#E74C3C"/>
  <rect x="10" y="10" width="1" height="1" fill="#E74C3C"/>
  <rect x="9" y="11" width="1" height="1" fill="#E74C3C"/>
  <rect x="6" y="11" width="4" height="1" fill="#FFD700"/>
  <rect x="5" y="12" width="6" height="1" fill="#FFD700"/>
  <rect x="4" y="13" width="8" height="1" fill="#FFD700"/>
  <rect x="7" y="14" width="2" height="2" fill="#4A90E2"/>
</svg>